<svg xmlns="http://www.w3.org/2000/svg" viewBox="0 0 600 600">
<circle cx="300" cy="300" r="300" fill="#1B2F42"/>
<circle cx="300" cy="300" r="290" fill="none" stroke="#FFFFFF" stroke-width="2.2" opacity="0.9"/>
<circle cx="300" cy="300" r="266" fill="none" stroke="#FFFFFF" stroke-width="1.6" stroke-dasharray="2.5,7" opacity="0.85"/>
<path d="M15.84 -14.399999999999999Q15.27 -15.45 14.204999999999998 -16.005Q13.139999999999999 -16.56 11.7 -16.56Q9.209999999999999 -16.56 7.709999999999999 -14.924999999999999Q6.21 -13.29 6.21 -10.559999999999999Q6.21 -7.6499999999999995 7.785 -6.015Q9.36 -4.38 12.12 -4.38Q14.01 -4.38 15.315000000000001 -5.34Q16.62 -6.3 17.22 -8.1H10.709999999999999V-11.879999999999999H21.869999999999997V-7.109999999999999Q21.3 -5.1899999999999995 19.935000000000002 -3.5399999999999996Q18.57 -1.89 16.47 -0.87Q14.37 0.15 11.73 0.15Q8.61 0.15 6.164999999999999 -1.215Q3.7199999999999998 -2.58 2.355 -5.01Q0.99 -7.4399999999999995 0.99 -10.559999999999999Q0.99 -13.68 2.355 -16.125Q3.7199999999999998 -18.57 6.15 -19.935000000000002Q8.58 -21.3 11.7 -21.3Q15.479999999999999 -21.3 18.075 -19.47Q20.669999999999998 -17.64 21.509999999999998 -14.399999999999999Z" fill="#FFFFFF" transform="translate(65.81,201.66) rotate(-67.22)"/>
<path d="M12.6 0.0 8.219999999999999 -7.949999999999999H6.989999999999999V0.0H1.8599999999999999V-21.06H10.469999999999999Q12.959999999999999 -21.06 14.715 -20.189999999999998Q16.47 -19.32 17.34 -17.805Q18.21 -16.29 18.21 -14.43Q18.21 -12.33 17.025 -10.68Q15.84 -9.03 13.53 -8.34L18.39 0.0ZM6.989999999999999 -11.58H10.17Q11.58 -11.58 12.285 -12.27Q12.99 -12.959999999999999 12.99 -14.219999999999999Q12.99 -15.42 12.285 -16.11Q11.58 -16.8 10.17 -16.8H6.989999999999999Z" fill="#FFFFFF" transform="translate(77.98,176.61) rotate(-60.94)"/>
<path d="M6.989999999999999 -21.06V0.0H1.8599999999999999V-21.06Z" fill="#FFFFFF" transform="translate(90.93,155.75) rotate(-55.40)"/>
<path d="M17.009999999999998 -21.06V-16.95H11.43V0.0H6.3V-16.95H0.72V-21.06Z" fill="#FFFFFF" transform="translate(99.10,144.57) rotate(-52.27)"/>
<path d="M3.0 -9.99Q3.0 -11.25 3.6 -12.285Q4.2 -13.32 5.234999999999999 -13.92Q6.27 -14.52 7.5 -14.52Q8.76 -14.52 9.795 -13.92Q10.83 -13.32 11.43 -12.285Q12.03 -11.25 12.03 -9.99Q12.03 -8.76 11.43 -7.725Q10.83 -6.6899999999999995 9.795 -6.09Q8.76 -5.49 7.5 -5.49Q6.27 -5.49 5.234999999999999 -6.09Q4.2 -6.6899999999999995 3.6 -7.725Q3.0 -8.76 3.0 -9.99Z" fill="#FFFFFF" transform="translate(129.98,111.30) rotate(-42.02)"/>
<path d="M1.26 -6.3H6.72Q6.84 -5.13 7.529999999999999 -4.515Q8.219999999999999 -3.9 9.33 -3.9Q10.469999999999999 -3.9 11.129999999999999 -4.425Q11.79 -4.95 11.79 -5.88Q11.79 -6.66 11.265 -7.17Q10.74 -7.68 9.975 -8.01Q9.209999999999999 -8.34 7.8 -8.76Q5.76 -9.389999999999999 4.47 -10.02Q3.1799999999999997 -10.65 2.25 -11.879999999999999Q1.3199999999999998 -13.11 1.3199999999999998 -15.09Q1.3199999999999998 -18.029999999999998 3.45 -19.695Q5.58 -21.36 9.0 -21.36Q12.48 -21.36 14.61 -19.695Q16.74 -18.029999999999998 16.89 -15.059999999999999H11.34Q11.28 -16.08 10.59 -16.665Q9.9 -17.25 8.82 -17.25Q7.89 -17.25 7.32 -16.755Q6.75 -16.259999999999998 6.75 -15.33Q6.75 -14.309999999999999 7.71 -13.739999999999998Q8.67 -13.17 10.709999999999999 -12.51Q12.75 -11.82 14.024999999999999 -11.19Q15.299999999999999 -10.559999999999999 16.23 -9.36Q17.16 -8.16 17.16 -6.27Q17.16 -4.47 16.245 -3.0Q15.33 -1.53 13.59 -0.66Q11.85 0.21 9.48 0.21Q7.17 0.21 5.34 -0.54Q3.51 -1.29 2.415 -2.76Q1.3199999999999998 -4.2299999999999995 1.26 -6.3Z" fill="#FFFFFF" transform="translate(163.99,85.49) rotate(-32.38)"/>
<path d="M0.99 -10.59Q0.99 -13.68 2.445 -16.14Q3.9 -18.599999999999998 6.375 -19.979999999999997Q8.85 -21.36 11.82 -21.36Q14.79 -21.36 17.265 -19.979999999999997Q19.74 -18.599999999999998 21.165 -16.14Q22.59 -13.68 22.59 -10.59Q22.59 -7.5 21.15 -5.025Q19.71 -2.55 17.25 -1.17Q14.79 0.21 11.82 0.21Q8.85 0.21 6.375 -1.17Q3.9 -2.55 2.445 -5.025Q0.99 -7.5 0.99 -10.59ZM17.37 -10.59Q17.37 -13.379999999999999 15.855 -15.045Q14.34 -16.71 11.82 -16.71Q9.27 -16.71 7.755 -15.06Q6.24 -13.41 6.24 -10.59Q6.24 -7.8 7.755 -6.135Q9.27 -4.47 11.82 -4.47Q14.34 -4.47 15.855 -6.15Q17.37 -7.83 17.37 -10.59Z" fill="#FFFFFF" transform="translate(184.34,73.86) rotate(-27.09)"/>
<path d="M6.989999999999999 -3.96H13.709999999999999V0.0H1.8599999999999999V-21.06H6.989999999999999Z" fill="#FFFFFF" transform="translate(210.47,62.30) rotate(-20.64)"/>
<path d="M6.8999999999999995 -21.06V-8.459999999999999Q6.8999999999999995 -6.569999999999999 7.83 -5.55Q8.76 -4.53 10.559999999999999 -4.53Q12.36 -4.53 13.32 -5.55Q14.28 -6.569999999999999 14.28 -8.459999999999999V-21.06H19.41V-8.49Q19.41 -5.67 18.21 -3.7199999999999998Q17.009999999999998 -1.77 14.985 -0.78Q12.959999999999999 0.21 10.469999999999999 0.21Q7.9799999999999995 0.21 6.015 -0.765Q4.05 -1.74 2.91 -3.705Q1.77 -5.67 1.77 -8.49V-21.06Z" fill="#FFFFFF" transform="translate(228.78,56.19) rotate(-16.28)"/>
<path d="M15.93 -7.199999999999999H21.57Q20.759999999999998 -4.17 18.555 -2.265Q16.349999999999998 -0.36 13.2 0.06V1.23Q14.76 1.23 15.93 2.085Q17.099999999999998 2.94 17.099999999999998 4.6499999999999995Q17.099999999999998 6.359999999999999 15.869999999999997 7.244999999999999Q14.639999999999999 8.129999999999999 12.93 8.129999999999999H8.31V5.31H12.24Q12.84 5.31 13.14 5.13Q13.44 4.95 13.44 4.53Q13.44 4.109999999999999 13.14 3.9449999999999994Q12.84 3.78 12.24 3.78H10.11V0.06Q7.41 -0.24 5.34 -1.665Q3.27 -3.09 2.13 -5.4Q0.99 -7.71 0.99 -10.559999999999999Q0.99 -13.68 2.34 -16.125Q3.69 -18.57 6.1049999999999995 -19.935000000000002Q8.52 -21.3 11.58 -21.3Q15.33 -21.3 18.0 -19.32Q20.669999999999998 -17.34 21.57 -13.92H15.93Q15.299999999999999 -15.24 14.145 -15.93Q12.99 -16.62 11.52 -16.62Q9.15 -16.62 7.68 -14.97Q6.21 -13.32 6.21 -10.559999999999999Q6.21 -7.8 7.68 -6.15Q9.15 -4.5 11.52 -4.5Q12.99 -4.5 14.145 -5.1899999999999995Q15.299999999999999 -5.88 15.93 -7.199999999999999Z" fill="#FFFFFF" transform="translate(254.21,50.16) rotate(-10.39)"/>
<path d="M0.99 -10.59Q0.99 -13.68 2.445 -16.14Q3.9 -18.599999999999998 6.375 -19.979999999999997Q8.85 -21.36 11.82 -21.36Q14.79 -21.36 17.265 -19.979999999999997Q19.74 -18.599999999999998 21.165 -16.14Q22.59 -13.68 22.59 -10.59Q22.59 -7.5 21.15 -5.025Q19.71 -2.55 17.25 -1.17Q14.79 0.21 11.82 0.21Q8.85 0.21 6.375 -1.17Q3.9 -2.55 2.445 -5.025Q0.99 -7.5 0.99 -10.59ZM17.37 -10.59Q17.37 -13.379999999999999 15.855 -15.045Q14.34 -16.71 11.82 -16.71Q9.27 -16.71 7.755 -15.06Q6.24 -13.41 6.24 -10.59Q6.24 -7.8 7.755 -6.135Q9.27 -4.47 11.82 -4.47Q14.34 -4.47 15.855 -6.15Q17.37 -7.83 17.37 -10.59ZM9.93 -26.97Q10.59 -26.97 11.084999999999999 -26.775Q11.579999999999998 -26.58 12.3 -26.189999999999998Q12.84 -25.889999999999997 13.17 -25.754999999999995Q13.5 -25.619999999999997 13.86 -25.619999999999997Q14.969999999999999 -25.619999999999997 15.149999999999999 -26.97H17.79Q17.07 -22.529999999999998 13.649999999999999 -22.529999999999998Q12.989999999999998 -22.529999999999998 12.495 -22.724999999999998Q12.0 -22.919999999999998 11.28 -23.31Q10.739999999999998 -23.61 10.409999999999998 -23.744999999999997Q10.079999999999998 -23.88 9.719999999999999 -23.88Q8.61 -23.88 8.399999999999999 -22.529999999999998H5.79Q6.51 -26.97 9.93 -26.97Z" fill="#FFFFFF" transform="translate(281.84,46.65) rotate(-4.10)"/>
<path d="M6.989999999999999 -16.95V-12.69H13.86V-8.73H6.989999999999999V-4.109999999999999H14.76V0.0H1.8599999999999999V-21.06H14.76V-16.95Z" fill="#FFFFFF" transform="translate(310.40,46.21) rotate(2.35)"/>
<path d="M1.26 -6.3H6.72Q6.84 -5.13 7.529999999999999 -4.515Q8.219999999999999 -3.9 9.33 -3.9Q10.469999999999999 -3.9 11.129999999999999 -4.425Q11.79 -4.95 11.79 -5.88Q11.79 -6.66 11.265 -7.17Q10.74 -7.68 9.975 -8.01Q9.209999999999999 -8.34 7.8 -8.76Q5.76 -9.389999999999999 4.47 -10.02Q3.1799999999999997 -10.65 2.25 -11.879999999999999Q1.3199999999999998 -13.11 1.3199999999999998 -15.09Q1.3199999999999998 -18.029999999999998 3.45 -19.695Q5.58 -21.36 9.0 -21.36Q12.48 -21.36 14.61 -19.695Q16.74 -18.029999999999998 16.89 -15.059999999999999H11.34Q11.28 -16.08 10.59 -16.665Q9.9 -17.25 8.82 -17.25Q7.89 -17.25 7.32 -16.755Q6.75 -16.259999999999998 6.75 -15.33Q6.75 -14.309999999999999 7.71 -13.739999999999998Q8.67 -13.17 10.709999999999999 -12.51Q12.75 -11.82 14.024999999999999 -11.19Q15.299999999999999 -10.559999999999999 16.23 -9.36Q17.16 -8.16 17.16 -6.27Q17.16 -4.47 16.245 -3.0Q15.33 -1.53 13.59 -0.66Q11.85 0.21 9.48 0.21Q7.17 0.21 5.34 -0.54Q3.51 -1.29 2.415 -2.76Q1.3199999999999998 -4.2299999999999995 1.26 -6.3Z" fill="#FFFFFF" transform="translate(331.55,47.97) rotate(7.13)"/>
<path d="M6.989999999999999 -16.95V-12.69H13.86V-8.73H6.989999999999999V-4.109999999999999H14.76V0.0H1.8599999999999999V-21.06H14.76V-16.95Z" fill="#FFFFFF" transform="translate(365.68,54.64) rotate(14.99)"/>
<path d="M20.7 0.0H15.57L6.989999999999999 -12.99V0.0H1.8599999999999999V-21.06H6.989999999999999L15.57 -8.01V-21.06H20.7Z" fill="#FFFFFF" transform="translate(396.54,65.06) rotate(22.34)"/>
<path d="M6.989999999999999 -16.95V-12.69H13.86V-8.73H6.989999999999999V-4.109999999999999H14.76V0.0H1.8599999999999999V-21.06H14.76V-16.95Z" fill="#FFFFFF" transform="translate(421.41,76.90) rotate(28.56)"/>
<path d="M15.84 -14.399999999999999Q15.27 -15.45 14.204999999999998 -16.005Q13.139999999999999 -16.56 11.7 -16.56Q9.209999999999999 -16.56 7.709999999999999 -14.924999999999999Q6.21 -13.29 6.21 -10.559999999999999Q6.21 -7.6499999999999995 7.785 -6.015Q9.36 -4.38 12.12 -4.38Q14.01 -4.38 15.315000000000001 -5.34Q16.62 -6.3 17.22 -8.1H10.709999999999999V-11.879999999999999H21.869999999999997V-7.109999999999999Q21.3 -5.1899999999999995 19.935000000000002 -3.5399999999999996Q18.57 -1.89 16.47 -0.87Q14.37 0.15 11.73 0.15Q8.61 0.15 6.164999999999999 -1.215Q3.7199999999999998 -2.58 2.355 -5.01Q0.99 -7.4399999999999995 0.99 -10.559999999999999Q0.99 -13.68 2.355 -16.125Q3.7199999999999998 -18.57 6.15 -19.935000000000002Q8.58 -21.3 11.7 -21.3Q15.479999999999999 -21.3 18.075 -19.47Q20.669999999999998 -17.64 21.509999999999998 -14.399999999999999Z" fill="#FFFFFF" transform="translate(439.62,87.81) rotate(33.34)"/>
<path d="M0.99 -10.59Q0.99 -13.68 2.445 -16.14Q3.9 -18.599999999999998 6.375 -19.979999999999997Q8.85 -21.36 11.82 -21.36Q14.79 -21.36 17.265 -19.979999999999997Q19.74 -18.599999999999998 21.165 -16.14Q22.59 -13.68 22.59 -10.59Q22.59 -7.5 21.15 -5.025Q19.71 -2.55 17.25 -1.17Q14.79 0.21 11.82 0.21Q8.85 0.21 6.375 -1.17Q3.9 -2.55 2.445 -5.025Q0.99 -7.5 0.99 -10.59ZM17.37 -10.59Q17.37 -13.379999999999999 15.855 -15.045Q14.34 -16.71 11.82 -16.71Q9.27 -16.71 7.755 -15.06Q6.24 -13.41 6.24 -10.59Q6.24 -7.8 7.755 -6.135Q9.27 -4.47 11.82 -4.47Q14.34 -4.47 15.855 -6.15Q17.37 -7.83 17.37 -10.59ZM15.299999999999999 -25.29 8.07 -22.259999999999998V-25.799999999999997L15.299999999999999 -29.279999999999998Z" fill="#FFFFFF" transform="translate(462.00,104.37) rotate(39.63)"/>
<path d="M11.58 -21.3Q15.33 -21.3 18.0 -19.32Q20.669999999999998 -17.34 21.57 -13.92H15.93Q15.299999999999999 -15.24 14.145 -15.93Q12.99 -16.62 11.52 -16.62Q9.15 -16.62 7.68 -14.97Q6.21 -13.32 6.21 -10.559999999999999Q6.21 -7.8 7.68 -6.15Q9.15 -4.5 11.52 -4.5Q12.99 -4.5 14.145 -5.1899999999999995Q15.299999999999999 -5.88 15.93 -7.199999999999999H21.57Q20.669999999999998 -3.78 18.0 -1.815Q15.33 0.15 11.58 0.15Q8.52 0.15 6.1049999999999995 -1.215Q3.69 -2.58 2.34 -5.01Q0.99 -7.4399999999999995 0.99 -10.559999999999999Q0.99 -13.68 2.34 -16.125Q3.69 -18.57 6.1049999999999995 -19.935000000000002Q8.52 -21.3 11.58 -21.3Z" fill="#FFFFFF" transform="translate(482.95,123.80) rotate(46.08)"/>
<path d="M6.989999999999999 -21.06V0.0H1.8599999999999999V-21.06Z" fill="#FFFFFF" transform="translate(501.13,144.88) rotate(52.36)"/>
<path d="M0.99 -10.59Q0.99 -13.68 2.445 -16.14Q3.9 -18.599999999999998 6.375 -19.979999999999997Q8.85 -21.36 11.82 -21.36Q14.79 -21.36 17.265 -19.979999999999997Q19.74 -18.599999999999998 21.165 -16.14Q22.59 -13.68 22.59 -10.59Q22.59 -7.5 21.15 -5.025Q19.71 -2.55 17.25 -1.17Q14.79 0.21 11.82 0.21Q8.85 0.21 6.375 -1.17Q3.9 -2.55 2.445 -5.025Q0.99 -7.5 0.99 -10.59ZM17.37 -10.59Q17.37 -13.379999999999999 15.855 -15.045Q14.34 -16.71 11.82 -16.71Q9.27 -16.71 7.755 -15.06Q6.24 -13.41 6.24 -10.59Q6.24 -7.8 7.755 -6.135Q9.27 -4.47 11.82 -4.47Q14.34 -4.47 15.855 -6.15Q17.37 -7.83 17.37 -10.59Z" fill="#FFFFFF" transform="translate(509.29,156.08) rotate(55.48)"/>
<path d="M1.26 -6.3H6.72Q6.84 -5.13 7.529999999999999 -4.515Q8.219999999999999 -3.9 9.33 -3.9Q10.469999999999999 -3.9 11.129999999999999 -4.425Q11.79 -4.95 11.79 -5.88Q11.79 -6.66 11.265 -7.17Q10.74 -7.68 9.975 -8.01Q9.209999999999999 -8.34 7.8 -8.76Q5.76 -9.389999999999999 4.47 -10.02Q3.1799999999999997 -10.65 2.25 -11.879999999999999Q1.3199999999999998 -13.11 1.3199999999999998 -15.09Q1.3199999999999998 -18.029999999999998 3.45 -19.695Q5.58 -21.36 9.0 -21.36Q12.48 -21.36 14.61 -19.695Q16.74 -18.029999999999998 16.89 -15.059999999999999H11.34Q11.28 -16.08 10.59 -16.665Q9.9 -17.25 8.82 -17.25Q7.89 -17.25 7.32 -16.755Q6.75 -16.259999999999998 6.75 -15.33Q6.75 -14.309999999999999 7.71 -13.739999999999998Q8.67 -13.17 10.709999999999999 -12.51Q12.75 -11.82 14.024999999999999 -11.19Q15.299999999999999 -10.559999999999999 16.23 -9.36Q17.16 -8.16 17.16 -6.27Q17.16 -4.47 16.245 -3.0Q15.33 -1.53 13.59 -0.66Q11.85 0.21 9.48 0.21Q7.17 0.21 5.34 -0.54Q3.51 -1.29 2.415 -2.76Q1.3199999999999998 -4.2299999999999995 1.26 -6.3Z" fill="#FFFFFF" transform="translate(524.13,180.49) rotate(61.93)"/>
<path d="M2.9295 -10.772499999999999V0.0H1.1625V-10.772499999999999Z" fill="#FFFFFF" transform="translate(70.50,408.84) rotate(424.63)"/>
<path d="M10.013 0.0H8.246L2.9295 -8.0445V0.0H1.1625V-10.788H2.9295L8.246 -2.759V-10.788H10.013Z" fill="#FFFFFF" transform="translate(73.63,415.21) rotate(423.03)"/>
<path d="M8.122 -10.772499999999999V-9.331H5.2545V0.0H3.4875V-9.331H0.6045V-10.772499999999999Z" fill="#FFFFFF" transform="translate(80.41,427.65) rotate(419.83)"/>
<path d="M2.9295 -9.3465V-6.1845H6.6495V-4.743H2.9295V-1.4415H7.1145V0.0H1.1625V-10.788H7.1145V-9.3465Z" fill="#FFFFFF" transform="translate(86.54,437.66) rotate(417.18)"/>
<path d="M2.9295 -1.426H6.572V0.0H1.1625V-10.772499999999999H2.9295Z" fill="#FFFFFF" transform="translate(92.77,446.88) rotate(414.67)"/>
<path d="M2.9295 -10.772499999999999V0.0H1.1625V-10.772499999999999Z" fill="#FFFFFF" transform="translate(98.64,454.83) rotate(412.44)"/>
<path d="M8.959 -7.6725Q8.5405 -8.4785 7.7965 -8.88925Q7.0525 -9.3 6.076 -9.3Q5.0065 -9.3 4.1695 -8.819500000000001Q3.3325 -8.339 2.85975 -7.455500000000001Q2.387 -6.572 2.387 -5.4094999999999995Q2.387 -4.247 2.85975 -3.35575Q3.3325 -2.4645 4.1695 -1.984Q5.0065 -1.5035 6.076 -1.5035Q7.5175 -1.5035 8.4165 -2.3095Q9.3155 -3.1155 9.517 -4.495H5.4715V-5.9055H11.408V-4.526Q11.2375 -3.2705 10.51675 -2.2165Q9.796 -1.1625 8.64125 -0.5347500000000001Q7.4865 0.093 6.076 0.093Q4.557 0.093 3.3015 -0.61225Q2.046 -1.3175 1.30975 -2.573Q0.5735 -3.8285 0.5735 -5.4094999999999995Q0.5735 -6.9905 1.30975 -8.246Q2.046 -9.5015 3.3092499999999996 -10.20675Q4.5725 -10.911999999999999 6.076 -10.911999999999999Q7.7965 -10.911999999999999 9.13725 -10.06725Q10.478 -9.2225 11.0825 -7.6725Z" fill="#FFFFFF" transform="translate(103.04,460.39) rotate(410.84)"/>
<path d="M2.9295 -9.3465V-6.1845H6.6495V-4.743H2.9295V-1.4415H7.1145V0.0H1.1625V-10.788H7.1145V-9.3465ZM4.061 -12.7255 1.8445 -11.3925V-12.772L4.061 -14.0585L6.2775 -12.772V-11.3925Z" fill="#FFFFFF" transform="translate(112.84,471.72) rotate(407.46)"/>
<path d="M10.013 0.0H8.246L2.9295 -8.0445V0.0H1.1625V-10.788H2.9295L8.246 -2.759V-10.788H10.013Z" fill="#FFFFFF" transform="translate(120.54,479.75) rotate(404.96)"/>
<path d="M6.076 -10.911999999999999Q7.7965 -10.911999999999999 9.13725 -10.06725Q10.478 -9.2225 11.0825 -7.6725H8.959Q8.5405 -8.525 7.7965 -8.9435Q7.0525 -9.362 6.076 -9.362Q5.0065 -9.362 4.1695 -8.881499999999999Q3.3325 -8.401 2.85975 -7.502Q2.387 -6.603 2.387 -5.4094999999999995Q2.387 -4.216 2.85975 -3.317Q3.3325 -2.418 4.1695 -1.92975Q5.0065 -1.4415 6.076 -1.4415Q7.0525 -1.4415 7.7965 -1.86Q8.5405 -2.2785 8.959 -3.131H11.0825Q10.478 -1.581 9.13725 -0.744Q7.7965 0.093 6.076 0.093Q4.557 0.093 3.3015 -0.61225Q2.046 -1.3175 1.30975 -2.573Q0.5735 -3.8285 0.5735 -5.4094999999999995Q0.5735 -6.9905 1.30975 -8.246Q2.046 -9.5015 3.3092499999999996 -10.20675Q4.5725 -10.911999999999999 6.076 -10.911999999999999Z" fill="#FFFFFF" transform="translate(130.84,489.48) rotate(401.76)"/>
<path d="M2.9295 -10.772499999999999V0.0H1.1625V-10.772499999999999Z" fill="#FFFFFF" transform="translate(142.30,499.12) rotate(398.38)"/>
<path d="M7.657 -2.201H3.1465L2.3715 0.0H0.527L4.3865 -10.788H6.4325L10.292 0.0H8.432ZM7.161 -3.6425 5.4094999999999995 -8.649 3.6425 -3.6425Z" fill="#FFFFFF" transform="translate(147.93,503.44) rotate(396.78)"/>
<path d="M1.55 -5.1615Q1.55 -6.014 2.139 -6.603Q2.7279999999999998 -7.192 3.565 -7.192Q4.433 -7.192 5.022 -6.603Q5.611 -6.014 5.611 -5.1615Q5.611 -4.309 5.022 -3.7277500000000003Q4.433 -3.1465 3.565 -3.1465Q3.007 -3.1465 2.54975 -3.41775Q2.0925 -3.689 1.82125 -4.14625Q1.55 -4.6035 1.55 -5.1615Z" fill="#FFFFFF" transform="translate(165.10,515.22) rotate(392.08)"/>
<path d="M8.122 -10.772499999999999V-9.331H5.2545V0.0H3.4875V-9.331H0.6045V-10.772499999999999Z" fill="#FFFFFF" transform="translate(179.97,523.85) rotate(388.20)"/>
<path d="M2.9295 -9.3465V-6.1845H6.6495V-4.743H2.9295V-1.4415H7.1145V0.0H1.1625V-10.788H7.1145V-9.3465Z" fill="#FFFFFF" transform="translate(190.44,529.16) rotate(385.55)"/>
<path d="M6.076 -10.911999999999999Q7.7965 -10.911999999999999 9.13725 -10.06725Q10.478 -9.2225 11.0825 -7.6725H8.959Q8.5405 -8.525 7.7965 -8.9435Q7.0525 -9.362 6.076 -9.362Q5.0065 -9.362 4.1695 -8.881499999999999Q3.3325 -8.401 2.85975 -7.502Q2.387 -6.603 2.387 -5.4094999999999995Q2.387 -4.216 2.85975 -3.317Q3.3325 -2.418 4.1695 -1.92975Q5.0065 -1.4415 6.076 -1.4415Q7.0525 -1.4415 7.7965 -1.86Q8.5405 -2.2785 8.959 -3.131H11.0825Q10.478 -1.581 9.13725 -0.744Q7.7965 0.093 6.076 0.093Q4.557 0.093 3.3015 -0.61225Q2.046 -1.3175 1.30975 -2.573Q0.5735 -3.8285 0.5735 -5.4094999999999995Q0.5735 -6.9905 1.30975 -8.246Q2.046 -9.5015 3.3092499999999996 -10.20675Q4.5725 -10.911999999999999 6.076 -10.911999999999999Z" fill="#FFFFFF" transform="translate(200.58,533.73) rotate(383.04)"/>
<path d="M10.013 0.0H8.246L2.9295 -8.0445V0.0H1.1625V-10.788H2.9295L8.246 -2.759V-10.788H10.013Z" fill="#FFFFFF" transform="translate(214.53,539.19) rotate(379.66)"/>
<path d="M0.5735 -5.4094999999999995Q0.5735 -6.9905 1.30975 -8.246Q2.046 -9.5015 3.3092499999999996 -10.20675Q4.5725 -10.911999999999999 6.076 -10.911999999999999Q7.595 -10.911999999999999 8.85825 -10.20675Q10.1215 -9.5015 10.85 -8.246Q11.5785 -6.9905 11.5785 -5.4094999999999995Q11.5785 -3.8285 10.85 -2.56525Q10.1215 -1.302 8.85825 -0.59675Q7.595 0.1085 6.076 0.1085Q4.5725 0.1085 3.3092499999999996 -0.59675Q2.046 -1.302 1.30975 -2.56525Q0.5735 -3.8285 0.5735 -5.4094999999999995ZM9.765 -5.4094999999999995Q9.765 -6.603 9.29225 -7.502Q8.8195 -8.401 7.9825 -8.881499999999999Q7.1455 -9.362 6.076 -9.362Q5.0065 -9.362 4.1695 -8.881499999999999Q3.3325 -8.401 2.85975 -7.502Q2.387 -6.603 2.387 -5.4094999999999995Q2.387 -4.216 2.85975 -3.30925Q3.3325 -2.4025 4.1695 -1.91425Q5.0065 -1.426 6.076 -1.426Q7.1455 -1.426 7.9825 -1.91425Q8.8195 -2.4025 9.29225 -3.30925Q9.765 -4.216 9.765 -5.4094999999999995Z" fill="#FFFFFF" transform="translate(228.00,543.58) rotate(376.47)"/>
<path d="M2.9295 -1.426H6.572V0.0H1.1625V-10.772499999999999H2.9295Z" fill="#FFFFFF" transform="translate(242.65,547.44) rotate(373.05)"/>
<path d="M0.5735 -5.4094999999999995Q0.5735 -6.9905 1.30975 -8.246Q2.046 -9.5015 3.3092499999999996 -10.20675Q4.5725 -10.911999999999999 6.076 -10.911999999999999Q7.595 -10.911999999999999 8.85825 -10.20675Q10.1215 -9.5015 10.85 -8.246Q11.5785 -6.9905 11.5785 -5.4094999999999995Q11.5785 -3.8285 10.85 -2.56525Q10.1215 -1.302 8.85825 -0.59675Q7.595 0.1085 6.076 0.1085Q4.5725 0.1085 3.3092499999999996 -0.59675Q2.046 -1.302 1.30975 -2.56525Q0.5735 -3.8285 0.5735 -5.4094999999999995ZM9.765 -5.4094999999999995Q9.765 -6.603 9.29225 -7.502Q8.8195 -8.401 7.9825 -8.881499999999999Q7.1455 -9.362 6.076 -9.362Q5.0065 -9.362 4.1695 -8.881499999999999Q3.3325 -8.401 2.85975 -7.502Q2.387 -6.603 2.387 -5.4094999999999995Q2.387 -4.216 2.85975 -3.30925Q3.3325 -2.4025 4.1695 -1.91425Q5.0065 -1.426 6.076 -1.426Q7.1455 -1.426 7.9825 -1.91425Q8.8195 -2.4025 9.29225 -3.30925Q9.765 -4.216 9.765 -5.4094999999999995Z" fill="#FFFFFF" transform="translate(252.32,549.48) rotate(370.82)"/>
<path d="M8.959 -7.6725Q8.5405 -8.4785 7.7965 -8.88925Q7.0525 -9.3 6.076 -9.3Q5.0065 -9.3 4.1695 -8.819500000000001Q3.3325 -8.339 2.85975 -7.455500000000001Q2.387 -6.572 2.387 -5.4094999999999995Q2.387 -4.247 2.85975 -3.35575Q3.3325 -2.4645 4.1695 -1.984Q5.0065 -1.5035 6.076 -1.5035Q7.5175 -1.5035 8.4165 -2.3095Q9.3155 -3.1155 9.517 -4.495H5.4715V-5.9055H11.408V-4.526Q11.2375 -3.2705 10.51675 -2.2165Q9.796 -1.1625 8.64125 -0.5347500000000001Q7.4865 0.093 6.076 0.093Q4.557 0.093 3.3015 -0.61225Q2.046 -1.3175 1.30975 -2.573Q0.5735 -3.8285 0.5735 -5.4094999999999995Q0.5735 -6.9905 1.30975 -8.246Q2.046 -9.5015 3.3092499999999996 -10.20675Q4.5725 -10.911999999999999 6.076 -10.911999999999999Q7.7965 -10.911999999999999 9.13725 -10.06725Q10.478 -9.2225 11.0825 -7.6725Z" fill="#FFFFFF" transform="translate(267.28,551.88) rotate(367.40)"/>
<path d="M2.9295 -10.772499999999999V0.0H1.1625V-10.772499999999999Z" fill="#FFFFFF" transform="translate(282.18,553.37) rotate(364.02)"/>
<path d="M7.657 -2.201H3.1465L2.3715 0.0H0.527L4.3865 -10.788H6.4325L10.292 0.0H8.432ZM7.161 -3.6425 5.4094999999999995 -8.649 3.6425 -3.6425Z" fill="#FFFFFF" transform="translate(289.27,553.77) rotate(362.42)"/>
<path d="M1.55 -5.1615Q1.55 -6.014 2.139 -6.603Q2.7279999999999998 -7.192 3.565 -7.192Q4.433 -7.192 5.022 -6.603Q5.611 -6.014 5.611 -5.1615Q5.611 -4.309 5.022 -3.7277500000000003Q4.433 -3.1465 3.565 -3.1465Q3.007 -3.1465 2.54975 -3.41775Q2.0925 -3.689 1.82125 -4.14625Q1.55 -4.6035 1.55 -5.1615Z" fill="#FFFFFF" transform="translate(310.09,553.80) rotate(357.72)"/>
<path d="M2.9295 -9.3465V-6.1845H6.6495V-4.743H2.9295V-1.4415H7.1145V0.0H1.1625V-10.788H7.1145V-9.3465Z" fill="#FFFFFF" transform="translate(327.23,552.54) rotate(353.84)"/>
<path d="M6.107 -5.3785 9.455 0.0H7.471L5.0375 -3.906L2.759 0.0H0.7905L4.1385 -5.3785L0.775 -10.772499999999999H2.759L5.208 -6.8355L7.502 -10.772499999999999H9.4705Z" fill="#FFFFFF" transform="translate(338.26,551.10) rotate(351.34)"/>
<path d="M2.9295 -9.3465V-6.1845H6.6495V-4.743H2.9295V-1.4415H7.1145V0.0H1.1625V-10.788H7.1145V-9.3465Z" fill="#FFFFFF" transform="translate(351.28,548.77) rotate(348.35)"/>
<path d="M6.076 -10.911999999999999Q7.7965 -10.911999999999999 9.13725 -10.06725Q10.478 -9.2225 11.0825 -7.6725H8.959Q8.5405 -8.525 7.7965 -8.9435Q7.0525 -9.362 6.076 -9.362Q5.0065 -9.362 4.1695 -8.881499999999999Q3.3325 -8.401 2.85975 -7.502Q2.387 -6.603 2.387 -5.4094999999999995Q2.387 -4.216 2.85975 -3.317Q3.3325 -2.418 4.1695 -1.92975Q5.0065 -1.4415 6.076 -1.4415Q7.0525 -1.4415 7.7965 -1.86Q8.5405 -2.2785 8.959 -3.131H11.0825Q10.478 -1.581 9.13725 -0.744Q7.7965 0.093 6.076 0.093Q4.557 0.093 3.3015 -0.61225Q2.046 -1.3175 1.30975 -2.573Q0.5735 -3.8285 0.5735 -5.4094999999999995Q0.5735 -6.9905 1.30975 -8.246Q2.046 -9.5015 3.3092499999999996 -10.20675Q4.5725 -10.911999999999999 6.076 -10.911999999999999Z" fill="#FFFFFF" transform="translate(362.12,546.29) rotate(345.84)"/>
<path d="M2.914 -10.772499999999999V-3.906Q2.914 -2.6814999999999998 3.55725 -2.0614999999999997Q4.2005 -1.4415 5.3475 -1.4415Q6.51 -1.4415 7.15325 -2.0614999999999997Q7.7965 -2.6814999999999998 7.7965 -3.906V-10.772499999999999H9.5635V-3.937Q9.5635 -2.6195 8.989999999999998 -1.705Q8.4165 -0.7905 7.4555 -0.34099999999999997Q6.4945 0.1085 5.332 0.1085Q4.1695 0.1085 3.21625 -0.34099999999999997Q2.263 -0.7905 1.705 -1.705Q1.147 -2.6195 1.147 -3.937V-10.772499999999999Z" fill="#FFFFFF" transform="translate(376.53,542.20) rotate(342.46)"/>
<path d="M8.959 -3.131H11.0825Q10.5245 -1.705 9.346499999999999 -0.87575Q8.1685 -0.0465 6.6185 0.0775V0.744Q7.5175 0.744 8.0755 1.17025Q8.6335 1.5965 8.6335 2.3715Q8.6335 3.1465 8.0755 3.60375Q7.5175 4.061 6.665 4.061H4.619V2.945H6.3084999999999996Q6.7425 2.945 6.9595 2.8209999999999997Q7.1765 2.697 7.1765 2.3715Q7.1765 2.046 6.9595 1.922Q6.7425 1.798 6.3084999999999996 1.798H5.4559999999999995V0.062Q4.092 -0.0775 2.976 -0.8059999999999999Q1.8599999999999999 -1.5345 1.21675 -2.73575Q0.5735 -3.937 0.5735 -5.4094999999999995Q0.5735 -6.9905 1.30975 -8.246Q2.046 -9.5015 3.3092499999999996 -10.20675Q4.5725 -10.911999999999999 6.076 -10.911999999999999Q7.7965 -10.911999999999999 9.13725 -10.06725Q10.478 -9.2225 11.0825 -7.6725H8.959Q8.5405 -8.525 7.7965 -8.9435Q7.0525 -9.362 6.076 -9.362Q5.0065 -9.362 4.1695 -8.881499999999999Q3.3325 -8.401 2.85975 -7.502Q2.387 -6.603 2.387 -5.4094999999999995Q2.387 -4.216 2.85975 -3.317Q3.3325 -2.418 4.1695 -1.92975Q5.0065 -1.4415 6.076 -1.4415Q7.0525 -1.4415 7.7965 -1.86Q8.5405 -2.2785 8.959 -3.131Z" fill="#FFFFFF" transform="translate(389.47,537.72) rotate(339.37)"/>
<path d="M7.657 -2.201H3.1465L2.3715 0.0H0.527L4.3865 -10.788H6.4325L10.292 0.0H8.432ZM7.161 -3.6425 5.4094999999999995 -8.649 3.6425 -3.6425ZM4.6345 -13.485000000000001Q4.929 -13.485000000000001 5.146 -13.392000000000001Q5.3629999999999995 -13.299000000000001 5.673 -13.113Q5.9055 -12.958 6.06825 -12.880500000000001Q6.231 -12.803 6.432499999999999 -12.803Q6.696 -12.803 6.87425 -12.96575Q7.052499999999999 -13.1285 7.098999999999999 -13.454H8.091Q7.967 -12.555 7.502 -12.097750000000001Q7.037 -11.640500000000001 6.339499999999999 -11.640500000000001Q6.045 -11.640500000000001 5.8125 -11.74125Q5.58 -11.842 5.301 -12.028Q5.022 -12.198500000000001 4.874750000000001 -12.268250000000002Q4.7275 -12.338000000000001 4.541499999999999 -12.338000000000001Q4.278 -12.338000000000001 4.09975 -12.1675Q3.9215 -11.997 3.875 -11.6715H2.8829999999999996Q3.0069999999999997 -12.570500000000001 3.4719999999999995 -13.027750000000001Q3.937 -13.485000000000001 4.6345 -13.485000000000001Z" fill="#FFFFFF" transform="translate(403.33,532.03) rotate(335.99)"/>
<path d="M0.5735 -5.4094999999999995Q0.5735 -6.9905 1.30975 -8.246Q2.046 -9.5015 3.3092499999999996 -10.20675Q4.5725 -10.911999999999999 6.076 -10.911999999999999Q7.595 -10.911999999999999 8.85825 -10.20675Q10.1215 -9.5015 10.85 -8.246Q11.5785 -6.9905 11.5785 -5.4094999999999995Q11.5785 -3.8285 10.85 -2.56525Q10.1215 -1.302 8.85825 -0.59675Q7.595 0.1085 6.076 0.1085Q4.5725 0.1085 3.3092499999999996 -0.59675Q2.046 -1.302 1.30975 -2.56525Q0.5735 -3.8285 0.5735 -5.4094999999999995ZM9.765 -5.4094999999999995Q9.765 -6.603 9.29225 -7.502Q8.8195 -8.401 7.9825 -8.881499999999999Q7.1455 -9.362 6.076 -9.362Q5.0065 -9.362 4.1695 -8.881499999999999Q3.3325 -8.401 2.85975 -7.502Q2.387 -6.603 2.387 -5.4094999999999995Q2.387 -4.216 2.85975 -3.30925Q3.3325 -2.4025 4.1695 -1.91425Q5.0065 -1.426 6.076 -1.426Q7.1455 -1.426 7.9825 -1.91425Q8.8195 -2.4025 9.29225 -3.30925Q9.765 -4.216 9.765 -5.4094999999999995Z" fill="#FFFFFF" transform="translate(415.78,526.08) rotate(332.88)"/>
<path d="M1.55 -5.1615Q1.55 -6.014 2.139 -6.603Q2.7279999999999998 -7.192 3.565 -7.192Q4.433 -7.192 5.022 -6.603Q5.611 -6.014 5.611 -5.1615Q5.611 -4.309 5.022 -3.7277500000000003Q4.433 -3.1465 3.565 -3.1465Q3.007 -3.1465 2.54975 -3.41775Q2.0925 -3.689 1.82125 -4.14625Q1.55 -4.6035 1.55 -5.1615Z" fill="#FFFFFF" transform="translate(435.06,515.12) rotate(327.88)"/>
<path d="M6.758 0.0 4.278 -4.309H2.9295V0.0H1.1625V-10.772499999999999H4.8825Q6.1225 -10.772499999999999 6.982749999999999 -10.3385Q7.843 -9.9045 8.26925 -9.176Q8.6955 -8.4475 8.6955 -7.5485Q8.6955 -6.4945 8.08325 -5.63425Q7.471 -4.774 6.2 -4.464L8.866 0.0ZM2.9295 -5.7195H4.8825Q5.8745 -5.7195 6.3782499999999995 -6.2155000000000005Q6.882 -6.7115 6.882 -7.5485Q6.882 -8.3855 6.385999999999999 -8.85825Q5.89 -9.331 4.8825 -9.331H2.9295Z" fill="#FFFFFF" transform="translate(449.30,505.49) rotate(324.00)"/>
<path d="M2.9295 -9.3465V-6.1845H6.6495V-4.743H2.9295V-1.4415H7.1145V0.0H1.1625V-10.788H7.1145V-9.3465Z" fill="#FFFFFF" transform="translate(459.46,497.71) rotate(321.11)"/>
<path d="M0.899 -2.976H2.79Q2.852 -2.2785 3.34025 -1.8290000000000002Q3.8285 -1.3795 4.712 -1.3795Q5.6265 -1.3795 6.138 -1.82125Q6.6495 -2.263 6.6495 -2.9605Q6.6495 -3.503 6.3317499999999995 -3.844Q6.014 -4.185 5.54125 -4.371Q5.0685 -4.557 4.2315 -4.774Q3.1774999999999998 -5.053 2.51875 -5.33975Q1.8599999999999999 -5.6265 1.395 -6.231Q0.9299999999999999 -6.8355 0.9299999999999999 -7.843Q0.9299999999999999 -8.773 1.395 -9.4705Q1.8599999999999999 -10.168 2.697 -10.54Q3.534 -10.911999999999999 4.6345 -10.911999999999999Q6.2 -10.911999999999999 7.19975 -10.129249999999999Q8.1995 -9.3465 8.308 -7.9825H6.3549999999999995Q6.3084999999999996 -8.5715 5.797 -8.99Q5.2855 -9.4085 4.4485 -9.4085Q3.689 -9.4085 3.2085 -9.021Q2.7279999999999998 -8.6335 2.7279999999999998 -7.905Q2.7279999999999998 -7.409 3.0302499999999997 -7.0912500000000005Q3.3325 -6.7735 3.7975000000000003 -6.5875Q4.2625 -6.4014999999999995 5.0685 -6.1845Q6.138 -5.89 6.812250000000001 -5.5954999999999995Q7.4865 -5.301 7.959250000000001 -4.688750000000001Q8.432 -4.0765 8.432 -3.0535Q8.432 -2.232 7.99025 -1.5035Q7.5485 -0.775 6.703749999999999 -0.33325Q5.859 0.1085 4.712 0.1085Q3.627 0.1085 2.759 -0.27125Q1.891 -0.651 1.395 -1.3485Q0.899 -2.046 0.899 -2.976Z" fill="#FFFFFF" transform="translate(467.96,490.54) rotate(318.60)"/>
<path d="M2.914 -10.772499999999999V-3.906Q2.914 -2.6814999999999998 3.55725 -2.0614999999999997Q4.2005 -1.4415 5.3475 -1.4415Q6.51 -1.4415 7.15325 -2.0614999999999997Q7.7965 -2.6814999999999998 7.7965 -3.906V-10.772499999999999H9.5635V-3.937Q9.5635 -2.6195 8.989999999999998 -1.705Q8.4165 -0.7905 7.4555 -0.34099999999999997Q6.4945 0.1085 5.332 0.1085Q4.1695 0.1085 3.21625 -0.34099999999999997Q2.263 -0.7905 1.705 -1.705Q1.147 -2.6195 1.147 -3.937V-10.772499999999999Z" fill="#FFFFFF" transform="translate(477.03,482.14) rotate(315.82)"/>
<path d="M2.9295 -1.426H6.572V0.0H1.1625V-10.772499999999999H2.9295Z" fill="#FFFFFF" transform="translate(486.59,472.34) rotate(312.73)"/>
<path d="M8.122 -10.772499999999999V-9.331H5.2545V0.0H3.4875V-9.331H0.6045V-10.772499999999999Z" fill="#FFFFFF" transform="translate(493.15,464.95) rotate(310.50)"/>
<path d="M7.657 -2.201H3.1465L2.3715 0.0H0.527L4.3865 -10.788H6.4325L10.292 0.0H8.432ZM7.161 -3.6425 5.4094999999999995 -8.649 3.6425 -3.6425Z" fill="#FFFFFF" transform="translate(500.57,455.85) rotate(307.85)"/>
<path d="M10.4005 -5.3475Q10.4005 -3.7045 9.69525 -2.4955Q8.99 -1.2865 7.69575 -0.64325Q6.4014999999999995 0.0 4.681 0.0H1.1625V-10.772499999999999H4.681Q6.4014999999999995 -10.772499999999999 7.69575 -10.11375Q8.99 -9.455 9.69525 -8.22275Q10.4005 -6.9905 10.4005 -5.3475ZM8.587 -5.3475Q8.587 -7.223 7.5794999999999995 -8.277Q6.572 -9.331 4.681 -9.331H2.9295V-1.4415H4.681Q6.572 -1.4415 7.5794999999999995 -2.4645Q8.587 -3.4875 8.587 -5.3475Z" fill="#FFFFFF" transform="translate(508.74,444.72) rotate(304.73)"/>
<path d="M0.5735 -5.4094999999999995Q0.5735 -6.9905 1.30975 -8.246Q2.046 -9.5015 3.3092499999999996 -10.20675Q4.5725 -10.911999999999999 6.076 -10.911999999999999Q7.595 -10.911999999999999 8.85825 -10.20675Q10.1215 -9.5015 10.85 -8.246Q11.5785 -6.9905 11.5785 -5.4094999999999995Q11.5785 -3.8285 10.85 -2.56525Q10.1215 -1.302 8.85825 -0.59675Q7.595 0.1085 6.076 0.1085Q4.5725 0.1085 3.3092499999999996 -0.59675Q2.046 -1.302 1.30975 -2.56525Q0.5735 -3.8285 0.5735 -5.4094999999999995ZM9.765 -5.4094999999999995Q9.765 -6.603 9.29225 -7.502Q8.8195 -8.401 7.9825 -8.881499999999999Q7.1455 -9.362 6.076 -9.362Q5.0065 -9.362 4.1695 -8.881499999999999Q3.3325 -8.401 2.85975 -7.502Q2.387 -6.603 2.387 -5.4094999999999995Q2.387 -4.216 2.85975 -3.30925Q3.3325 -2.4025 4.1695 -1.91425Q5.0065 -1.426 6.076 -1.426Q7.1455 -1.426 7.9825 -1.91425Q8.8195 -2.4025 9.29225 -3.30925Q9.765 -4.216 9.765 -5.4094999999999995Z" fill="#FFFFFF" transform="translate(516.39,433.01) rotate(301.58)"/>
<path d="M0.899 -2.976H2.79Q2.852 -2.2785 3.34025 -1.8290000000000002Q3.8285 -1.3795 4.712 -1.3795Q5.6265 -1.3795 6.138 -1.82125Q6.6495 -2.263 6.6495 -2.9605Q6.6495 -3.503 6.3317499999999995 -3.844Q6.014 -4.185 5.54125 -4.371Q5.0685 -4.557 4.2315 -4.774Q3.1774999999999998 -5.053 2.51875 -5.33975Q1.8599999999999999 -5.6265 1.395 -6.231Q0.9299999999999999 -6.8355 0.9299999999999999 -7.843Q0.9299999999999999 -8.773 1.395 -9.4705Q1.8599999999999999 -10.168 2.697 -10.54Q3.534 -10.911999999999999 4.6345 -10.911999999999999Q6.2 -10.911999999999999 7.19975 -10.129249999999999Q8.1995 -9.3465 8.308 -7.9825H6.3549999999999995Q6.3084999999999996 -8.5715 5.797 -8.99Q5.2855 -9.4085 4.4485 -9.4085Q3.689 -9.4085 3.2085 -9.021Q2.7279999999999998 -8.6335 2.7279999999999998 -7.905Q2.7279999999999998 -7.409 3.0302499999999997 -7.0912500000000005Q3.3325 -6.7735 3.7975000000000003 -6.5875Q4.2625 -6.4014999999999995 5.0685 -6.1845Q6.138 -5.89 6.812250000000001 -5.5954999999999995Q7.4865 -5.301 7.959250000000001 -4.688750000000001Q8.432 -4.0765 8.432 -3.0535Q8.432 -2.232 7.99025 -1.5035Q7.5485 -0.775 6.703749999999999 -0.33325Q5.859 0.1085 4.712 0.1085Q3.627 0.1085 2.759 -0.27125Q1.891 -0.651 1.395 -1.3485Q0.899 -2.046 0.899 -2.976Z" fill="#FFFFFF" transform="translate(523.93,419.88) rotate(298.16)"/>
<g transform="translate(238.0,192) scale(0.62)">
  
  <path d="M 100.0,10.0 L 177.94,55.0 L 177.94,145.0 L 100.0,190.0 L 22.06,145.0 L 22.06,55.0 Z M 100.0,32.73 L 158.26,66.36 L 158.26,133.64 L 100.0,167.27 L 41.74,133.64 L 41.74,66.36 Z" fill="#FFFFFF" fill-rule="evenodd"/>
  <path d="M 140.59,71.41 L 88.35,71.41 L 70.71,89.06 L 106.0,89.76 L 56.59,139.18 L 76.35,150.47 L 121.53,105.29 L 122.24,140.59 L 140.59,122.94 Z" fill="#FB7A18"/>
</g>
<path d="M273.436 334.218V329.63599999999997H283.354V361.942Q283.354 366.408 281.585 370.033Q279.816 373.658 276.191 375.804Q272.566 377.95 267.17199999999997 377.95Q259.97999999999996 377.95 255.51399999999995 374.557Q251.04799999999997 371.164 250.41 365.364H260.212Q260.676 367.22 262.416 368.293Q264.156 369.366 266.70799999999997 369.366Q269.782 369.366 271.609 367.597Q273.436 365.828 273.436 361.942V357.36Q271.986 359.622 269.43399999999997 361.043Q266.882 362.464 263.46 362.464Q259.45799999999997 362.464 256.21 360.405Q252.962 358.346 251.077 354.547Q249.19199999999998 350.748 249.19199999999998 345.76Q249.19199999999998 340.772 251.077 337.00199999999995Q252.962 333.23199999999997 256.21 331.202Q259.45799999999997 329.172 263.46 329.172Q266.882 329.172 269.46299999999997 330.564Q272.044 331.956 273.436 334.218ZM266.36 337.814Q263.402 337.814 261.34299999999996 339.93100000000004Q259.284 342.048 259.284 345.76Q259.284 349.472 261.34299999999996 351.647Q263.402 353.822 266.36 353.822Q269.318 353.822 271.37699999999995 351.676Q273.436 349.53 273.436 345.818Q273.436 342.106 271.37699999999995 339.96000000000004Q269.318 337.814 266.36 337.814Z M310.614 329.288V339.786H307.888Q304.176 339.786 302.32 341.381Q300.464 342.976 300.464 346.978V362.0H290.546V329.63599999999997H300.464V335.03Q302.204 332.362 304.81399999999996 330.82500000000005Q307.424 329.288 310.614 329.288Z M314.442 320.936Q314.442 318.616 316.095 317.07899999999995Q317.748 315.542 320.358 315.542Q322.91 315.542 324.563 317.07899999999995Q326.216 318.616 326.216 320.936Q326.216 323.198 324.563 324.735Q322.91 326.272 320.358 326.272Q317.748 326.272 316.095 324.735Q314.442 323.198 314.442 320.936ZM325.288 329.63599999999997V362.0H315.37V329.63599999999997Z M350.51800000000003 353.59V362.0H345.47200000000004Q340.07800000000003 362.0 337.062 359.361Q334.046 356.722 334.046 350.748V337.872H330.10200000000003V329.63599999999997H334.046V321.748H343.964V329.63599999999997H350.46000000000004V337.872H343.964V350.864Q343.964 352.314 344.65999999999997 352.952Q345.356 353.59 346.98 353.59Z" fill="#FFFFFF"/>
</svg>