<svg xmlns="http://www.w3.org/2000/svg" viewBox="0 0 520 132" role="img" aria-labelledby="t d"><title id="t">Meu Espetinho</title><desc id="d">Seu negócio no controle</desc><rect x="8" y="8" width="116" height="116" rx="24" fill="#FF6A00"/><path d="M68 25c9 20-7 27 3 42 7-12 17-17 18-31 18 18 21 40 9 57-8 12-20 19-34 19-25 0-42-17-42-39 0-22 17-34 31-50-2 15 3 23 15 31 5-12 3-20 0-29z" fill="#fff"/><path d="M67 62c10 11 17 20 13 32-3 8-9 13-17 13-11 0-20-9-20-21 0-10 7-17 15-25 0 8 3 12 8 16 4-6 4-10 1-15z" fill="#FF6A00"/><text x="151" y="61" font-family="Poppins,Inter,Segoe UI,Arial,sans-serif" font-size="34" font-weight="800" fill="#0D1323">Meu Espetinho</text><text x="151" y="88" font-family="Poppins,Inter,Segoe UI,Arial,sans-serif" font-size="15" font-weight="600" letter-spacing="2.2" fill="#657084">SEU NEGÓCIO NO CONTROLE</text></svg>